<svg width="46" height="51" viewBox="0 0 46 51" fill="none" xmlns="http://www.w3.org/2000/svg">
<path d="M7.66669 12.75C7.66669 14.4408 9.28216 16.0623 12.1577 17.2578C15.0333 18.4534 18.9334 19.125 23 19.125C27.0667 19.125 30.9668 18.4534 33.8423 17.2578C36.7179 16.0623 38.3334 14.4408 38.3334 12.75C38.3334 11.0592 36.7179 9.43774 33.8423 8.24219C30.9668 7.04665 27.0667 6.375 23 6.375C18.9334 6.375 15.0333 7.04665 12.1577 8.24219C9.28216 9.43774 7.66669 11.0592 7.66669 12.75Z" stroke="white" stroke-width="2" stroke-linecap="round" stroke-linejoin="round"/>
<path d="M7.66669 12.75V25.5C7.66669 27.1908 9.28216 28.8123 12.1577 30.0078C15.0333 31.2034 18.9334 31.875 23 31.875C27.0667 31.875 30.9668 31.2034 33.8423 30.0078C36.7179 28.8123 38.3334 27.1908 38.3334 25.5V12.75" stroke="white" stroke-width="2" stroke-linecap="round" stroke-linejoin="round"/>
<path d="M7.66669 25.5V38.25C7.66669 39.9408 9.28216 41.5623 12.1577 42.7578C15.0333 43.9534 18.9334 44.625 23 44.625C27.0667 44.625 30.9668 43.9534 33.8423 42.7578C36.7179 41.5623 38.3334 39.9408 38.3334 38.25V25.5" stroke="white" stroke-width="2" stroke-linecap="round" stroke-linejoin="round"/>
</svg>
