<svg width="400" height="400" viewBox="0 0 400 400" fill="none" xmlns="http://www.w3.org/2000/svg">
<g id="eyes-open">
<g id="eye-right">
<ellipse id="Ellipse 4" cx="8.86598" cy="13.5945" rx="8.86598" ry="13.5945" transform="matrix(-0.999396 0.0347579 0.0347579 0.999396 254.233 221.663)" fill="black"/>
<path id="Vector 1" d="M254.603 232.295C254.603 232.295 256.751 232.221 257.58 231.305C258.408 230.389 259.206 228.587 259.206 228.587" stroke="black" stroke-width="3" stroke-linecap="round" stroke-linejoin="round"/>
<path id="Vector 2" d="M250.895 227.693C250.895 227.693 253.043 227.618 253.871 226.702C254.699 225.786 255.497 223.984 255.497 223.984" stroke="black" stroke-width="3" stroke-linecap="round" stroke-linejoin="round"/>
</g>
<g id="eye-left">
<ellipse id="Ellipse 4_2" cx="173.603" cy="239.595" rx="8.86598" ry="13.5945" transform="rotate(-6.81395 173.603 239.595)" fill="black"/>
<path id="Vector 1_2" d="M164.449 237.713C164.449 237.713 162.315 237.968 161.356 237.189C160.397 236.411 159.333 234.752 159.333 234.752" stroke="black" stroke-width="3" stroke-linecap="round" stroke-linejoin="round"/>
<path id="Vector 2_2" d="M167.409 232.597C167.409 232.597 165.275 232.852 164.316 232.073C163.357 231.295 162.293 229.636 162.293 229.636" stroke="black" stroke-width="3" stroke-linecap="round" stroke-linejoin="round"/>
</g>
</g>
</svg>
