<svg width="40" height="40" viewBox="0 0 40 40" fill="none" xmlns="http://www.w3.org/2000/svg">
<g clip-path="url(#clip0_266_699)">
<path d="M8.85834 3.50002C10.1767 3.31169 12.025 3.74169 14.4133 5.11002L14.8667 5.37836L15.1333 5.54502L15.795 5.40669C18.318 4.91917 20.9066 4.87405 23.445 5.27336L24.205 5.40669L24.865 5.54502L25.1333 5.37836C27.4417 3.97836 29.2783 3.42836 30.67 3.46502L30.9433 3.47836L31.1883 3.50669L31.315 3.53002L31.3983 3.54836L31.6383 3.62669C32.0313 3.78912 32.3473 4.09558 32.5217 4.48336C33.2037 6.00286 33.4334 7.6867 33.1833 9.33336L33.105 9.77836L33.0283 10.105L33.2333 10.3767C34.19 11.7017 34.7833 13.2567 34.95 14.8884L34.9883 15.38L35 15.8334C35 22.2584 32.235 25.6384 27.26 26.9667L26.8517 27.0684L26.6317 27.1167L26.655 27.385L26.6683 27.6467L26.675 28.255L26.6717 28.61L26.6667 35C26.6666 35.4082 26.5167 35.8023 26.2455 36.1073C25.9742 36.4124 25.6004 36.6073 25.195 36.655L25 36.6667H15C14.5918 36.6666 14.1978 36.5168 13.8927 36.2455C13.5877 35.9742 13.3928 35.6004 13.345 35.195L13.3333 35V33.7767C10.3033 34.21 8.28334 33.07 6.48334 30.6467L5.59167 29.37C5.125 28.71 4.83334 28.405 4.61 28.2967L4.53 28.265C4.11735 28.1309 3.77326 27.8412 3.57086 27.4574C3.36847 27.0736 3.32371 26.626 3.44612 26.2098C3.56852 25.7935 3.84844 25.4414 4.22637 25.2282C4.6043 25.0151 5.05045 24.9577 5.47 25.0684C6.54 25.3817 7.26 26.015 8.08667 27.1334L8.98334 28.415C10.25 30.2134 11.25 30.8467 13.3317 30.4L13.3333 29.27L13.3033 28.99C13.2541 28.534 13.2424 28.0747 13.2683 27.6167L13.2967 27.3084L13.3283 27.1084L13.1483 27.0684C8.18834 25.885 5.31 22.78 5.02334 16.8367L5.00667 16.32L5 15.8334C5.00193 14.0277 5.52762 12.2613 6.51334 10.7484L6.76667 10.3784L6.97 10.1067L6.895 9.78002C6.59453 8.31596 6.67778 6.79908 7.13667 5.37669L7.30334 4.90669L7.48 4.48502C7.654 4.09756 7.96936 3.79114 8.36167 3.62836L8.60167 3.55002L8.85834 3.50002Z" fill="white"/>
</g>
<defs>
<clipPath id="clip0_266_699">
<rect width="40" height="40" fill="white"/>
</clipPath>
</defs>
</svg>
