<svg width="40" height="40" viewBox="0 0 40 40" fill="none" xmlns="http://www.w3.org/2000/svg">
<g clip-path="url(#clip0_266_751)">
<path d="M35 13.195V19.9183C31.9768 19.6184 29.0941 18.4936 26.6667 16.6667V24.1667C26.6662 26.2019 26.0925 28.1958 25.0112 29.92C23.9298 31.6442 22.3847 33.0289 20.5528 33.9156C18.7208 34.8022 16.6762 35.1548 14.6531 34.9331C12.63 34.7114 10.7103 33.9242 9.11384 32.6619C7.51743 31.3995 6.3089 29.713 5.62671 27.7955C4.94452 25.878 4.81627 23.8072 5.25665 21.8202C5.69702 19.8332 6.68822 18.0104 8.11667 16.5607C9.54512 15.111 11.3531 14.093 13.3333 13.6233V20.8333C12.7651 21.2595 12.3153 21.8238 12.0266 22.4727C11.7378 23.1216 11.6197 23.8335 11.6835 24.5409C11.7473 25.2482 11.9908 25.9275 12.391 26.5143C12.7912 27.1011 13.3347 27.5758 13.9699 27.8934C14.6052 28.2111 15.3111 28.361 16.0206 28.3291C16.7301 28.2972 17.4197 28.0844 18.0239 27.711C18.628 27.3377 19.1267 26.816 19.4726 26.1957C19.8185 25.5754 20 24.8769 20 24.1667V5H26.805C27.152 7.04734 28.1273 8.93604 29.5956 10.4044C31.064 11.8727 32.9527 12.848 35 13.195Z" stroke="white" stroke-width="4" stroke-linecap="round" stroke-linejoin="round"/>
</g>
<defs>
<clipPath id="clip0_266_751">
<rect width="40" height="40" fill="white"/>
</clipPath>
</defs>
</svg>
