<svg width="40" height="40" viewBox="0 0 40 40" fill="none" xmlns="http://www.w3.org/2000/svg">
<g clip-path="url(#clip0_266_689)">
<path d="M28.3333 3.33331C30.5434 3.33331 32.663 4.21129 34.2258 5.77409C35.7886 7.33689 36.6666 9.45651 36.6666 11.6666V28.3333C36.6666 30.5435 35.7886 32.6631 34.2258 34.2259C32.663 35.7887 30.5434 36.6666 28.3333 36.6666H11.6666C9.45645 36.6666 7.33683 35.7887 5.77403 34.2259C4.21123 32.6631 3.33325 30.5435 3.33325 28.3333V11.6666C3.33325 9.45651 4.21123 7.33689 5.77403 5.77409C7.33683 4.21129 9.45645 3.33331 11.6666 3.33331H28.3333ZM13.3333 16.6666C12.8912 16.6666 12.4673 16.8422 12.1547 17.1548C11.8422 17.4674 11.6666 17.8913 11.6666 18.3333V26.6666C11.6666 27.1087 11.8422 27.5326 12.1547 27.8452C12.4673 28.1577 12.8912 28.3333 13.3333 28.3333C13.7753 28.3333 14.1992 28.1577 14.5118 27.8452C14.8243 27.5326 14.9999 27.1087 14.9999 26.6666V18.3333C14.9999 17.8913 14.8243 17.4674 14.5118 17.1548C14.1992 16.8422 13.7753 16.6666 13.3333 16.6666ZM23.3333 16.6666C22.6646 16.6663 22.0026 16.8 21.3866 17.06L21.1783 17.155C20.9452 16.922 20.6482 16.7633 20.325 16.699C20.0017 16.6347 19.6667 16.6677 19.3622 16.7938C19.0577 16.92 18.7974 17.1335 18.6142 17.4076C18.4311 17.6816 18.3333 18.0037 18.3333 18.3333V26.6666C18.3333 27.1087 18.5088 27.5326 18.8214 27.8452C19.134 28.1577 19.5579 28.3333 19.9999 28.3333C20.4419 28.3333 20.8659 28.1577 21.1784 27.8452C21.491 27.5326 21.6666 27.1087 21.6666 26.6666V21.6666C21.6666 21.2246 21.8422 20.8007 22.1547 20.4881C22.4673 20.1756 22.8912 20 23.3333 20C23.7753 20 24.1992 20.1756 24.5118 20.4881C24.8243 20.8007 24.9999 21.2246 24.9999 21.6666V26.6666C24.9999 27.1087 25.1755 27.5326 25.4881 27.8452C25.8006 28.1577 26.2246 28.3333 26.6666 28.3333C27.1086 28.3333 27.5325 28.1577 27.8451 27.8452C28.1577 27.5326 28.3333 27.1087 28.3333 26.6666V21.6666C28.3333 20.3406 27.8065 19.0688 26.8688 18.1311C25.9311 17.1934 24.6593 16.6666 23.3333 16.6666ZM13.3333 11.6666C12.925 11.6667 12.531 11.8166 12.226 12.0878C11.9209 12.3591 11.726 12.7329 11.6783 13.1383L11.6666 13.35C11.6671 13.7748 11.8297 14.1834 12.1213 14.4923C12.4129 14.8012 12.8115 14.987 13.2356 15.0119C13.6596 15.0368 14.0772 14.8989 14.403 14.6262C14.7287 14.3536 14.9381 13.9668 14.9883 13.545L14.9999 13.3333C14.9999 12.8913 14.8243 12.4674 14.5118 12.1548C14.1992 11.8422 13.7753 11.6666 13.3333 11.6666Z" fill="white"/>
</g>
<defs>
<clipPath id="clip0_266_689">
<rect width="40" height="40" fill="white"/>
</clipPath>
</defs>
</svg>
