<svg width="40" height="40" viewBox="0 0 40 40" fill="none" xmlns="http://www.w3.org/2000/svg">
<g clip-path="url(#clip0_266_692)">
<path d="M13.3335 18.3333V26.6666" stroke="white" stroke-width="4" stroke-linecap="round" stroke-linejoin="round"/>
<path d="M13.3335 13.3333V13.3499" stroke="white" stroke-width="4" stroke-linecap="round" stroke-linejoin="round"/>
<path d="M20 26.6666V18.3333" stroke="white" stroke-width="4" stroke-linecap="round" stroke-linejoin="round"/>
<path d="M26.6667 26.6666V21.6666C26.6667 20.7825 26.3155 19.9347 25.6904 19.3096C25.0652 18.6844 24.2174 18.3333 23.3333 18.3333C22.4493 18.3333 21.6014 18.6844 20.9763 19.3096C20.3512 19.9347 20 20.7825 20 21.6666" stroke="white" stroke-width="4" stroke-linecap="round" stroke-linejoin="round"/>
<path d="M5 11.6667C5 9.89856 5.70238 8.20286 6.95262 6.95262C8.20286 5.70238 9.89856 5 11.6667 5H28.3333C30.1014 5 31.7971 5.70238 33.0474 6.95262C34.2976 8.20286 35 9.89856 35 11.6667V28.3333C35 30.1014 34.2976 31.7971 33.0474 33.0474C31.7971 34.2976 30.1014 35 28.3333 35H11.6667C9.89856 35 8.20286 34.2976 6.95262 33.0474C5.70238 31.7971 5 30.1014 5 28.3333V11.6667Z" stroke="white" stroke-width="4" stroke-linecap="round" stroke-linejoin="round"/>
</g>
<defs>
<clipPath id="clip0_266_692">
<rect width="40" height="40" fill="white"/>
</clipPath>
</defs>
</svg>
