<svg width="40" height="40" viewBox="0 0 40 40" fill="none" xmlns="http://www.w3.org/2000/svg">
<g clip-path="url(#clip0_266_754)">
<path d="M6.6665 13.3334C6.6665 11.5653 7.36888 9.86961 8.61913 8.61937C9.86937 7.36913 11.5651 6.66675 13.3332 6.66675H26.6665C28.4346 6.66675 30.1303 7.36913 31.3805 8.61937C32.6308 9.86961 33.3332 11.5653 33.3332 13.3334V26.6667C33.3332 28.4349 32.6308 30.1305 31.3805 31.3808C30.1303 32.631 28.4346 33.3334 26.6665 33.3334H13.3332C11.5651 33.3334 9.86937 32.631 8.61913 31.3808C7.36888 30.1305 6.6665 28.4349 6.6665 26.6667V13.3334Z" stroke="white" stroke-width="4" stroke-linecap="round" stroke-linejoin="round"/>
<path d="M15 20C15 21.3261 15.5268 22.5979 16.4645 23.5355C17.4021 24.4732 18.6739 25 20 25C21.3261 25 22.5979 24.4732 23.5355 23.5355C24.4732 22.5979 25 21.3261 25 20C25 18.6739 24.4732 17.4021 23.5355 16.4645C22.5979 15.5268 21.3261 15 20 15C18.6739 15 17.4021 15.5268 16.4645 16.4645C15.5268 17.4021 15 18.6739 15 20Z" stroke="white" stroke-width="4" stroke-linecap="round" stroke-linejoin="round"/>
<path d="M27.5 12.5V12.5167" stroke="white" stroke-width="4" stroke-linecap="round" stroke-linejoin="round"/>
</g>
<defs>
<clipPath id="clip0_266_754">
<rect width="40" height="40" fill="white"/>
</clipPath>
</defs>
</svg>
