<svg width="20" height="20" viewBox="0 0 20 20" fill="none" xmlns="http://www.w3.org/2000/svg">
<g clip-path="url(#clip0_266_677)">
<path d="M9.99977 1.66C8.49119 1.66028 7.01099 2.07006 5.71705 2.84564C4.4231 3.62121 3.36396 4.73349 2.65261 6.06382C1.94125 7.39415 1.60436 8.89263 1.67787 10.3994C1.75138 11.9062 2.23254 13.3648 3.07002 14.6195C3.9075 15.8743 5.06988 16.8782 6.43317 17.5241C7.79647 18.1701 9.30953 18.4338 10.811 18.2872C12.3124 18.1407 13.7459 17.5893 14.9585 16.6919C16.1712 15.7945 17.1174 14.5847 17.6964 13.1917C17.9806 12.5083 17.2998 11.8217 16.6148 12.1C15.4408 12.5756 14.1372 12.6246 12.9307 12.2387C11.7243 11.8527 10.6912 11.0562 10.0112 9.98752C9.33121 8.91884 9.04722 7.64565 9.20864 6.38929C9.37006 5.13294 9.96669 3.97289 10.8948 3.11083L10.9589 3.04417C11.4181 2.51917 11.0531 1.66667 10.3273 1.66667H10.1056L10.0489 1.66167L9.99894 1.66H9.99977Z" fill="#191825"/>
</g>
<defs>
<clipPath id="clip0_266_677">
<rect width="20" height="20" fill="white"/>
</clipPath>
</defs>
</svg>
