<svg width="50" height="50" viewBox="0 0 50 50" fill="none" xmlns="http://www.w3.org/2000/svg">
<g clip-path="url(#clip0_266_726)">
<path d="M26.3857 4.52918L41.8023 9.97085C42.7063 10.2899 43.4725 10.9109 43.972 11.7291C44.4714 12.5473 44.6734 13.5127 44.544 14.4625L41.7877 34.6771C41.7018 35.311 41.471 35.9166 41.1134 36.4469C40.7557 36.9773 40.2807 37.4182 39.7252 37.7354L27.0669 44.9667C26.4375 45.3262 25.7251 45.5153 25.0002 45.5153C24.2754 45.5153 23.563 45.3262 22.9336 44.9667L10.2752 37.7375C9.7718 37.4501 9.33389 37.0607 8.98951 36.5943C8.64513 36.128 8.40185 35.5949 8.27524 35.0292L8.21274 34.6813L5.45857 14.4646C5.32914 13.5148 5.53118 12.5494 6.0306 11.7312C6.53003 10.913 7.29631 10.292 8.20024 9.97293L23.6169 4.52918C24.5135 4.21309 25.4912 4.21309 26.3877 4.52918M26.9523 13.8521C26.2773 12.05 23.7273 12.05 23.0523 13.8521L16.8023 30.5188C16.6086 31.036 16.6281 31.6089 16.8567 32.1117C17.0852 32.6145 17.504 33.0059 18.0211 33.2L18.2523 33.2729C18.748 33.3953 19.2714 33.3313 19.723 33.0932C20.1747 32.8551 20.5232 32.4594 20.7023 31.9813L21.7565 29.1667H28.2419L29.3002 31.9834C29.4794 32.4615 29.8279 32.8571 30.2795 33.0953C30.7312 33.3334 31.2545 33.3973 31.7502 33.275L31.9815 33.2021C32.4985 33.008 32.9174 32.6165 33.1459 32.1138C33.3744 31.611 33.394 31.038 33.2002 30.5208L26.9523 13.8521ZM25.0002 20.5167L26.6815 24.9979H23.319L25.0002 20.5167Z" fill="white"/>
</g>
<defs>
<clipPath id="clip0_266_726">
<rect width="50" height="50" fill="white"/>
</clipPath>
</defs>
</svg>
