<svg width="50" height="50" viewBox="0 0 50 50" fill="none" xmlns="http://www.w3.org/2000/svg">
<g clip-path="url(#clip0_266_930)">
<path d="M3 23C4.16695 23 5.28611 22.4996 6.11127 21.6088C6.93643 20.718 7.4 19.5098 7.4 18.25V8.75C7.4 7.49022 7.86357 6.28204 8.68873 5.39124C9.51389 4.50044 10.633 4 11.8 4H38.2C39.367 4 40.4861 4.50044 41.3113 5.39124C42.1364 6.28204 42.6 7.49022 42.6 8.75V18.25C42.6 19.5098 43.0636 20.718 43.8887 21.6088C44.7139 22.4996 45.833 23 47 23" stroke="white" stroke-width="4" stroke-linecap="round" stroke-linejoin="round"/>
<path d="M3 23C4.16695 23 5.28611 23.4741 6.11127 24.318C6.93643 25.1619 7.4 26.3065 7.4 27.5V36.5C7.4 37.6935 7.86357 38.8381 8.68873 39.682C9.51389 40.5259 10.633 41 11.8 41H38.2C39.367 41 40.4861 40.5259 41.3113 39.682C42.1364 38.8381 42.6 37.6935 42.6 36.5V27.5C42.6 26.3065 43.0636 25.1619 43.8887 24.318C44.7139 23.4741 45.833 23 47 23" stroke="white" stroke-width="4" stroke-linecap="round" stroke-linejoin="round"/>
<path d="M18 32V14H26.1667C27.4043 14 28.5913 14.4741 29.4665 15.318C30.3417 16.1619 30.8333 17.3065 30.8333 18.5C30.8333 19.6935 30.3417 20.8381 29.4665 21.682C28.5913 22.5259 27.4043 23 26.1667 23H18H27.3333C28.571 23 29.758 23.4741 30.6332 24.318C31.5083 25.1619 32 26.3065 32 27.5C32 28.6935 31.5083 29.8381 30.6332 30.682C29.758 31.5259 28.571 32 27.3333 32H18Z" stroke="white" stroke-width="4" stroke-linecap="round" stroke-linejoin="round"/>
</g>
<defs>
<clipPath id="clip0_266_930">
<rect width="50" height="50" fill="white"/>
</clipPath>
</defs>
</svg>
