<svg width="50" height="50" viewBox="0 0 50 50" fill="none" xmlns="http://www.w3.org/2000/svg">
<g clip-path="url(#clip0_266_777)">
<path d="M48.25 27.1178C43.8824 26.3216 41.7107 24.6255 39.7206 20.3333C38.5416 21.9394 37.0526 23.9517 37.4933 25.8716C37.5611 26.4209 36.7185 28.1793 36.1447 28.1793H2.25C2.25 40.1974 9.91021 44.3327 17.2508 44.3327C27.2353 44.3835 36.2028 41.1574 41.1079 32.7945C43.8824 32.5615 46.6666 29.3216 48.25 27.1178Z" stroke="white" stroke-width="4" stroke-linecap="round" stroke-linejoin="round"/>
<path d="M8.25 21.3333H14.25V27.3333H8.25V21.3333Z" stroke="white" stroke-width="4" stroke-linecap="round" stroke-linejoin="round"/>
<path d="M14.25 21.3333H22.25V27.3333H14.25V21.3333Z" stroke="white" stroke-width="4" stroke-linecap="round" stroke-linejoin="round"/>
<path d="M22.25 21.3333H28.25V27.3333H22.25V21.3333Z" stroke="white" stroke-width="4" stroke-linecap="round" stroke-linejoin="round"/>
<path d="M14.25 13.3333H22.25V21.3333H14.25V13.3333Z" stroke="white" stroke-width="4" stroke-linecap="round" stroke-linejoin="round"/>
<path d="M22.25 13.3333H28.25V21.3333H22.25V13.3333Z" stroke="white" stroke-width="4" stroke-linecap="round" stroke-linejoin="round"/>
<path d="M22.25 6.33331H28.25V13.3333H22.25V6.33331Z" stroke="white" stroke-width="4" stroke-linecap="round" stroke-linejoin="round"/>
<path d="M7.25 40.3333C10.7997 40.3333 12.0942 40.1436 14.25 38.3333" stroke="white" stroke-width="4" stroke-linecap="round" stroke-linejoin="round"/>
<path d="M20.8335 33.3333V33.3533" stroke="white" stroke-width="4" stroke-linecap="round" stroke-linejoin="round"/>
</g>
<defs>
<clipPath id="clip0_266_777">
<rect width="50" height="50" fill="white"/>
</clipPath>
</defs>
</svg>
