<svg width="50" height="50" viewBox="0 0 50 50" fill="none" xmlns="http://www.w3.org/2000/svg">
<path d="M23.5 24.75C23.5 26.6065 24.2902 28.387 25.6967 29.6997C27.1032 31.0125 29.0109 31.75 31 31.75C32.9891 31.75 34.8968 31.0125 36.3033 29.6997C37.7098 28.387 38.5 26.6065 38.5 24.75C38.5 22.8935 37.7098 21.113 36.3033 19.8003C34.8968 18.4875 32.9891 17.75 31 17.75C29.0109 17.75 27.1032 18.4875 25.6967 19.8003C24.2902 21.113 23.5 22.8935 23.5 24.75Z" stroke="white" stroke-width="4" stroke-linecap="round" stroke-linejoin="round"/>
<path d="M9.5 10.25C9.5 8.26088 10.2638 6.35322 11.6235 4.9467C12.9831 3.54018 14.8272 2.75 16.75 2.75H31.25C33.1728 2.75 35.0169 3.54018 36.3765 4.9467C37.7362 6.35322 38.5 8.26088 38.5 10.25C38.5 12.2391 37.7362 14.1468 36.3765 15.5533C35.0169 16.9598 33.1728 17.75 31.25 17.75H16.75C14.8272 17.75 12.9831 16.9598 11.6235 15.5533C10.2638 14.1468 9.5 12.2391 9.5 10.25Z" stroke="white" stroke-width="4" stroke-linecap="round" stroke-linejoin="round"/>
<path d="M13.5 17.5C10.5235 19.5 9.5 22.8051 9.5 24.75C9.5 26.6949 10.2375 28.5602 11.5503 29.9354C12.863 31.3107 14.6435 32.0833 16.5 32.0833M16.5 32.0833H23.5M16.5 32.0833C15.1155 32.0833 13.7622 32.5134 12.611 33.3192C11.4599 34.125 10.5627 35.2703 10.0328 36.6103C9.50303 37.9503 9.36441 39.4248 9.63451 40.8473C9.9046 42.2699 10.5713 43.5765 11.5503 44.6021C12.5292 45.6277 13.7765 46.3261 15.1344 46.6091C16.4922 46.892 17.8997 46.7468 19.1788 46.1918C20.4579 45.6367 21.5511 44.6968 22.3203 43.4908C23.0895 42.2849 23.5 40.8671 23.5 39.4167V2.75" stroke="white" stroke-width="4" stroke-linecap="round" stroke-linejoin="round"/>
</svg>
