<svg width="50" height="50" viewBox="0 0 50 50" fill="none" xmlns="http://www.w3.org/2000/svg">
<g clip-path="url(#clip0_266_705)">
<path d="M31.25 25C31.25 25.5526 31.4695 26.0825 31.8602 26.4732C32.2509 26.8639 32.7808 27.0834 33.3333 27.0834C33.8859 27.0834 34.4158 26.8639 34.8065 26.4732C35.1972 26.0825 35.4167 25.5526 35.4167 25C35.4167 24.4475 35.1972 23.9176 34.8065 23.5269C34.4158 23.1362 33.8859 22.9167 33.3333 22.9167C32.7808 22.9167 32.2509 23.1362 31.8602 23.5269C31.4695 23.9176 31.25 24.4475 31.25 25Z" stroke="white" stroke-width="4" stroke-linecap="round" stroke-linejoin="round"/>
<path d="M22.9167 16.6666C22.9167 17.2192 23.1362 17.7491 23.5269 18.1398C23.9176 18.5305 24.4475 18.75 25.0001 18.75C25.5526 18.75 26.0825 18.5305 26.4732 18.1398C26.8639 17.7491 27.0834 17.2192 27.0834 16.6666C27.0834 16.1141 26.8639 15.5842 26.4732 15.1935C26.0825 14.8028 25.5526 14.5833 25.0001 14.5833C24.4475 14.5833 23.9176 14.8028 23.5269 15.1935C23.1362 15.5842 22.9167 16.1141 22.9167 16.6666Z" stroke="white" stroke-width="4" stroke-linecap="round" stroke-linejoin="round"/>
<path d="M22.9167 33.3333C22.9167 33.8859 23.1362 34.4158 23.5269 34.8065C23.9176 35.1972 24.4475 35.4167 25.0001 35.4167C25.5526 35.4167 26.0825 35.1972 26.4732 34.8065C26.8639 34.4158 27.0834 33.8859 27.0834 33.3333C27.0834 32.7808 26.8639 32.2509 26.4732 31.8602C26.0825 31.4695 25.5526 31.25 25.0001 31.25C24.4475 31.25 23.9176 31.4695 23.5269 31.8602C23.1362 32.2509 22.9167 32.7808 22.9167 33.3333Z" stroke="white" stroke-width="4" stroke-linecap="round" stroke-linejoin="round"/>
<path d="M25 31.25V18.75" stroke="white" stroke-width="4" stroke-linecap="round" stroke-linejoin="round"/>
<path d="M31.2499 22.9167L27.0833 18.75" stroke="white" stroke-width="4" stroke-linecap="round" stroke-linejoin="round"/>
<path d="M22.9166 14.5833L18.9583 10.625" stroke="white" stroke-width="4" stroke-linecap="round" stroke-linejoin="round"/>
<path d="M28.0124 5.41667L44.5854 21.9875C45.3843 22.7865 45.8331 23.8701 45.8331 25C45.8331 26.1299 45.3843 27.2135 44.5854 28.0125L28.0124 44.5854C27.2135 45.3844 26.1298 45.8332 24.9999 45.8332C23.87 45.8332 22.7864 45.3844 21.9874 44.5854L5.41453 28.0125C4.61559 27.2135 4.16675 26.1299 4.16675 25C4.16675 23.8701 4.61559 22.7865 5.41453 21.9875L21.9874 5.41459C22.7864 4.61565 23.87 4.16681 24.9999 4.16681C26.1298 4.16681 27.2135 4.61773 28.0124 5.41667Z" stroke="white" stroke-width="4" stroke-linecap="round" stroke-linejoin="round"/>
</g>
<defs>
<clipPath id="clip0_266_705">
<rect width="50" height="50" fill="white"/>
</clipPath>
</defs>
</svg>
