<svg width="50" height="50" viewBox="0 0 50 50" fill="none" xmlns="http://www.w3.org/2000/svg">
<path d="M43 5L38.5 39.2727L25 44L11.5 39.2727L7 5H43Z" stroke="white" stroke-width="4" stroke-linecap="round" stroke-linejoin="round"/>
<path d="M16 16H22V34L18 31.75" stroke="white" stroke-width="4" stroke-linecap="round" stroke-linejoin="round"/>
<path d="M34 16H29C28.7348 16 28.4804 16.1185 28.2929 16.3295C28.1054 16.5405 28 16.8266 28 17.125V23.875C28 24.1734 28.1054 24.4595 28.2929 24.6705C28.4804 24.8815 28.7348 25 29 25H31.846C31.9891 25 32.1306 25.0346 32.2608 25.1014C32.3911 25.1683 32.507 25.2658 32.6009 25.3874C32.6947 25.5089 32.7643 25.6518 32.8049 25.8062C32.8454 25.9606 32.856 26.1231 32.836 26.2825L32 32.875L28 34" stroke="white" stroke-width="4" stroke-linecap="round" stroke-linejoin="round"/>
</svg>
