<svg width="50" height="50" viewBox="0 0 50 50" fill="none" xmlns="http://www.w3.org/2000/svg">
<g clip-path="url(#clip0_266_729)">
<path d="M18.75 31.25V18.75L34.8854 40.9375C30.8925 43.4177 26.1136 44.3076 21.4956 43.431C16.8775 42.5544 12.7572 39.9753 9.95079 36.2045C7.14439 32.4337 5.85668 27.7464 6.34275 23.071C6.82883 18.3957 9.05323 14.0735 12.5753 10.9607C16.0974 7.84783 20.6601 6.17142 25.3598 6.26355C30.0594 6.35569 34.5529 8.20965 37.9503 11.4582C41.3476 14.7067 43.4009 19.1127 43.7034 23.8035C44.0058 28.4943 42.5354 33.1275 39.5834 36.7854" stroke="white" stroke-width="4" stroke-linecap="round" stroke-linejoin="round"/>
<path d="M31.25 25V18.75" stroke="white" stroke-width="4" stroke-linecap="round" stroke-linejoin="round"/>
</g>
<defs>
<clipPath id="clip0_266_729">
<rect width="50" height="50" fill="white"/>
</clipPath>
</defs>
</svg>
