<svg width="50" height="50" viewBox="0 0 50 50" fill="none" xmlns="http://www.w3.org/2000/svg">
<g clip-path="url(#clip0_266_747)">
<path d="M18.75 18.75V35.5084C18.7499 36.2389 18.5577 36.9565 18.1927 37.5893C17.8277 38.2222 17.3028 38.7479 16.6705 39.1138C16.0382 39.4798 15.3209 39.673 14.5904 39.6743C13.8598 39.6755 13.1418 39.4846 12.5083 39.1208L9.24167 37.2459C8.3276 36.6874 7.57239 35.9034 7.04851 34.9691C6.52463 34.0348 6.24966 32.9816 6.25 31.9104V18.0875C6.25002 17.0167 6.52516 15.9639 7.04902 15.03C7.57288 14.0961 8.3279 13.3124 9.24167 12.7542L21.7417 5.1146C22.7228 4.5152 23.8503 4.19806 25 4.19806C26.1497 4.19806 27.2772 4.5152 28.2583 5.1146L40.7583 12.7542C41.6724 13.3126 42.4276 14.0966 42.9515 15.0309C43.4754 15.9652 43.7503 17.0184 43.75 18.0896V31.9104C43.75 32.9812 43.4748 34.0341 42.951 34.968C42.4271 35.9019 41.6721 36.6855 40.7583 37.2438L28.2583 44.8834C27.2772 45.4828 26.1497 45.7999 25 45.7999C23.8503 45.7999 22.7228 45.4828 21.7417 44.8834" stroke="white" stroke-width="4" stroke-linecap="round" stroke-linejoin="round"/>
<path d="M35.4167 18.75H28.125C27.2962 18.75 26.5013 19.0792 25.9153 19.6653C25.3292 20.2513 25 21.0462 25 21.875C25 22.7038 25.3292 23.4987 25.9153 24.0847C26.5013 24.6708 27.2962 25 28.125 25H32.2917C33.1205 25 33.9153 25.3292 34.5014 25.9153C35.0874 26.5013 35.4167 27.2962 35.4167 28.125C35.4167 28.9538 35.0874 29.7487 34.5014 30.3347C33.9153 30.9208 33.1205 31.25 32.2917 31.25H25" stroke="white" stroke-width="4" stroke-linecap="round" stroke-linejoin="round"/>
</g>
<defs>
<clipPath id="clip0_266_747">
<rect width="50" height="50" fill="white"/>
</clipPath>
</defs>
</svg>
