<svg width="50" height="50" viewBox="0 0 50 50" fill="none" xmlns="http://www.w3.org/2000/svg">
<g clip-path="url(#clip0_266_680)">
<path d="M13.1376 18.1479C7.71675 19.6541 4.16675 22.1604 4.16675 25C4.16675 29.6041 13.4938 33.3333 25.0001 33.3333C26.6105 33.3333 28.1792 33.2604 29.6834 33.1208" stroke="white" stroke-width="4" stroke-linecap="round" stroke-linejoin="round"/>
<path d="M36.8583 31.8521C42.2813 30.3479 45.8333 27.8396 45.8333 25C45.8333 20.3959 36.5063 16.6667 25 16.6667C23.3896 16.6667 21.8208 16.7396 20.3125 16.8792" stroke="white" stroke-width="4" stroke-linecap="round" stroke-linejoin="round"/>
<path d="M13.1355 31.8479C11.7272 37.2958 12.1251 41.625 14.5834 43.0417C18.5688 45.3438 26.4647 39.1313 32.2168 29.1667C33.023 27.7708 33.7438 26.3771 34.3751 25" stroke="white" stroke-width="4" stroke-linecap="round" stroke-linejoin="round"/>
<path d="M36.8624 18.1584C38.2728 12.7084 37.877 8.37503 35.4166 6.95836C31.4311 4.65628 23.5353 10.8688 17.7832 20.8334C16.977 22.2292 16.2561 23.625 15.6228 25" stroke="white" stroke-width="4" stroke-linecap="round" stroke-linejoin="round"/>
<path d="M25.0001 11.3C20.9897 7.35835 17.0417 5.53752 14.5834 6.95835C10.598 9.25835 12.0292 19.2021 17.7834 29.1667C18.5876 30.5625 19.4355 31.8833 20.3084 33.1167" stroke="white" stroke-width="4" stroke-linecap="round" stroke-linejoin="round"/>
<path d="M25 38.6958C29.0125 42.6396 32.9604 44.4625 35.4167 43.0416C39.4021 40.7416 37.9708 30.7979 32.2167 20.8333C31.4354 19.4791 30.5917 18.1604 29.6917 16.8812" stroke="white" stroke-width="4" stroke-linecap="round" stroke-linejoin="round"/>
<path d="M23.9584 26.8042C24.1954 26.9431 24.4576 27.0338 24.7298 27.0711C25.002 27.1083 25.2789 27.0913 25.5446 27.0211C25.8102 26.9508 26.0593 26.8288 26.2775 26.6619C26.4958 26.495 26.6789 26.2866 26.8163 26.0486C26.9536 25.8107 27.0426 25.5479 27.078 25.2755C27.1134 25.003 27.0946 24.7262 27.0226 24.4611C26.9506 24.1959 26.8269 23.9476 26.6586 23.7305C26.4902 23.5133 26.2806 23.3316 26.0417 23.1958C25.5635 22.9239 24.9971 22.8522 24.4662 22.9964C23.9353 23.1405 23.4829 23.4888 23.2078 23.9652C22.9328 24.4417 22.8573 25.0076 22.9979 25.5394C23.1385 26.0713 23.4838 26.5259 23.9584 26.8042Z" stroke="white" stroke-width="4" stroke-linecap="round" stroke-linejoin="round"/>
</g>
<defs>
<clipPath id="clip0_266_680">
<rect width="50" height="50" fill="white"/>
</clipPath>
</defs>
</svg>
