<svg width="46" height="51" viewBox="0 0 46 51" fill="none" xmlns="http://www.w3.org/2000/svg">
<path d="M7.6665 12.75C7.6665 14.4408 9.28198 16.0623 12.1575 17.2578C15.0331 18.4534 18.9332 19.125 22.9998 19.125C27.0665 19.125 30.9666 18.4534 33.8421 17.2578C36.7177 16.0623 38.3332 14.4408 38.3332 12.75C38.3332 11.0592 36.7177 9.43774 33.8421 8.24219C30.9666 7.04665 27.0665 6.375 22.9998 6.375C18.9332 6.375 15.0331 7.04665 12.1575 8.24219C9.28198 9.43774 7.6665 11.0592 7.6665 12.75Z" stroke="white" stroke-width="4" stroke-linecap="round" stroke-linejoin="round"/>
<path d="M7.6665 12.75V25.5C7.6665 27.1908 9.28198 28.8123 12.1575 30.0078C15.0331 31.2034 18.9332 31.875 22.9998 31.875C27.0665 31.875 30.9666 31.2034 33.8421 30.0078C36.7177 28.8123 38.3332 27.1908 38.3332 25.5V12.75" stroke="white" stroke-width="4" stroke-linecap="round" stroke-linejoin="round"/>
<path d="M7.6665 25.5V38.25C7.6665 39.9408 9.28198 41.5623 12.1575 42.7578C15.0331 43.9534 18.9332 44.625 22.9998 44.625C27.0665 44.625 30.9666 43.9534 33.8421 42.7578C36.7177 41.5623 38.3332 39.9408 38.3332 38.25V25.5" stroke="white" stroke-width="4" stroke-linecap="round" stroke-linejoin="round"/>
</svg>
