<svg width="50" height="50" viewBox="0 0 50 50" fill="none" xmlns="http://www.w3.org/2000/svg">
<g clip-path="url(#clip0_266_714)">
<path d="M24.149 12C17.7857 12 13.8143 14.9532 12.2222 20.8619C14.6066 17.9063 17.3921 16.8019 20.5712 17.539C22.3857 17.9595 23.6813 19.1823 25.115 20.5357C27.4559 22.7397 30.2261 25.2917 36.0732 25.2917C42.4366 25.2917 46.4079 22.3385 48 16.4298C45.6157 19.3853 42.8301 20.4898 39.651 19.7527C37.8366 19.3322 36.5409 18.1093 35.1072 16.756C32.7663 14.552 30.06 12 24.149 12ZM13.9268 27.7083C7.56344 27.7083 3.59211 30.6615 2 36.5703C4.38433 33.6147 7.16989 32.5103 10.349 33.2473C12.1634 33.6678 13.4591 34.8907 14.8928 36.244C17.2337 38.448 19.94 41 25.851 41C32.2143 41 36.1857 38.0468 37.7778 32.1381C35.3934 35.0937 32.6079 36.1981 29.4288 35.461C27.6143 35.0405 26.3187 33.8177 24.885 32.4643C22.5441 30.2603 19.8378 27.7083 13.9268 27.7083Z" stroke="white" stroke-width="4" stroke-linecap="round" stroke-linejoin="round"/>
</g>
<defs>
<clipPath id="clip0_266_714">
<rect width="50" height="50" fill="white"/>
</clipPath>
</defs>
</svg>
