<svg width="50" height="50" viewBox="0 0 50 50" fill="none" xmlns="http://www.w3.org/2000/svg">
<rect x="7" y="7" width="36" height="36" rx="5" stroke="white" stroke-width="4"/>
<path d="M16.12 25.58V23H26.52V25.58H22.74V37H19.88V25.58H16.12ZM29.365 32.3C29.6583 32.82 29.9783 33.2733 30.325 33.66C30.685 34.0467 31.0783 34.3467 31.505 34.56C31.9317 34.7733 32.3917 34.88 32.885 34.88C33.4583 34.88 33.925 34.7333 34.285 34.44C34.645 34.1467 34.825 33.7467 34.825 33.24C34.825 32.8 34.7117 32.4467 34.485 32.18C34.2717 31.9133 33.945 31.68 33.505 31.48C33.0783 31.2667 32.5517 31.04 31.925 30.8C31.5917 30.68 31.205 30.52 30.765 30.32C30.3383 30.1067 29.9317 29.84 29.545 29.52C29.1583 29.1867 28.8383 28.7867 28.585 28.32C28.3317 27.84 28.205 27.2667 28.205 26.6C28.205 25.8 28.405 25.1133 28.805 24.54C29.2183 23.9533 29.7717 23.5067 30.465 23.2C31.1717 22.88 31.9583 22.72 32.825 22.72C33.7183 22.72 34.485 22.8733 35.125 23.18C35.7783 23.4733 36.3183 23.8533 36.745 24.32C37.185 24.7733 37.525 25.2467 37.765 25.74L35.525 26.98C35.3383 26.6467 35.1117 26.3467 34.845 26.08C34.5917 25.8 34.2983 25.58 33.965 25.42C33.6317 25.2467 33.2517 25.16 32.825 25.16C32.265 25.16 31.845 25.2933 31.565 25.56C31.285 25.8133 31.145 26.1133 31.145 26.46C31.145 26.8067 31.2583 27.1133 31.485 27.38C31.7117 27.6333 32.0583 27.88 32.525 28.12C32.9917 28.3467 33.5783 28.58 34.285 28.82C34.7383 28.98 35.1717 29.18 35.585 29.42C36.0117 29.66 36.3917 29.9533 36.725 30.3C37.0717 30.6333 37.3383 31.0333 37.525 31.5C37.725 31.9533 37.825 32.48 37.825 33.08C37.825 33.76 37.6917 34.3667 37.425 34.9C37.1583 35.4333 36.7917 35.8867 36.325 36.26C35.8583 36.62 35.3317 36.8933 34.745 37.08C34.1717 37.28 33.565 37.38 32.925 37.38C32.0717 37.38 31.2717 37.22 30.525 36.9C29.7917 36.5667 29.1517 36.12 28.605 35.56C28.0583 35 27.6317 34.3933 27.325 33.74L29.365 32.3Z" fill="white"/>
</svg>
